# Wavefront OBJ file automatically generated by Tiled2Unity

# Vertices (Count = 231)
v 0 -0.699999988079071 0
v -0.699999988079071 -0.699999988079071 0
v -0.699999988079071 0 0
v 0 0 0
v -1.39999997615814 -0.699999988079071 0
v -1.39999997615814 0 0
v -2.09999990463257 -0.699999988079071 0
v -2.09999990463257 0 0
v -2.79999995231628 -0.699999988079071 0
v -2.79999995231628 0 0
v -3.5 -0.699999988079071 0
v -3.5 0 0
v -4.19999980926514 -0.699999988079071 0
v -4.19999980926514 0 0
v -4.90000009536743 -0.699999988079071 0
v -4.90000009536743 0 0
v -5.59999990463257 -0.699999988079071 0
v -5.59999990463257 0 0
v -6.29999971389771 -0.699999988079071 0
v -6.29999971389771 0 0
v -7 -0.699999988079071 0
v -7 0 0
v -7.69999980926514 -0.699999988079071 0
v -7.69999980926514 0 0
v -8.39999961853027 -0.699999988079071 0
v -8.39999961853027 0 0
v -9.09999942779541 -0.699999988079071 0
v -9.09999942779541 0 0
v -9.80000019073486 -0.699999988079071 0
v -9.80000019073486 0 0
v -10.5 -0.699999988079071 0
v -10.5 0 0
v -11.1999998092651 -0.699999988079071 0
v -11.1999998092651 0 0
v -11.8999996185303 -0.699999988079071 0
v -11.8999996185303 0 0
v -12.5999994277954 -0.699999988079071 0
v -12.5999994277954 0 0
v -13.2999992370605 -0.699999988079071 0
v -13.2999992370605 0 0
v -14 -0.699999988079071 0
v -14 0 0
v 0 -1.39999997615814 0
v -0.699999988079071 -1.39999997615814 0
v -1.39999997615814 -1.39999997615814 0
v -2.09999990463257 -1.39999997615814 0
v -2.79999995231628 -1.39999997615814 0
v -3.5 -1.39999997615814 0
v -4.19999980926514 -1.39999997615814 0
v -4.90000009536743 -1.39999997615814 0
v -5.59999990463257 -1.39999997615814 0
v -6.29999971389771 -1.39999997615814 0
v -7 -1.39999997615814 0
v -7.69999980926514 -1.39999997615814 0
v -8.39999961853027 -1.39999997615814 0
v -9.09999942779541 -1.39999997615814 0
v -9.80000019073486 -1.39999997615814 0
v -10.5 -1.39999997615814 0
v -11.1999998092651 -1.39999997615814 0
v -11.8999996185303 -1.39999997615814 0
v -12.5999994277954 -1.39999997615814 0
v -13.2999992370605 -1.39999997615814 0
v -14 -1.39999997615814 0
v 0 -2.09999990463257 0
v -0.699999988079071 -2.09999990463257 0
v -1.39999997615814 -2.09999990463257 0
v -2.09999990463257 -2.09999990463257 0
v -2.79999995231628 -2.09999990463257 0
v -3.5 -2.09999990463257 0
v -4.19999980926514 -2.09999990463257 0
v -4.90000009536743 -2.09999990463257 0
v -5.59999990463257 -2.09999990463257 0
v -6.29999971389771 -2.09999990463257 0
v -7 -2.09999990463257 0
v -7.69999980926514 -2.09999990463257 0
v -8.39999961853027 -2.09999990463257 0
v -9.09999942779541 -2.09999990463257 0
v -9.80000019073486 -2.09999990463257 0
v -10.5 -2.09999990463257 0
v -11.1999998092651 -2.09999990463257 0
v -11.8999996185303 -2.09999990463257 0
v -12.5999994277954 -2.09999990463257 0
v -13.2999992370605 -2.09999990463257 0
v -14 -2.09999990463257 0
v 0 -2.79999995231628 0
v -0.699999988079071 -2.79999995231628 0
v -1.39999997615814 -2.79999995231628 0
v -2.09999990463257 -2.79999995231628 0
v -2.79999995231628 -2.79999995231628 0
v -3.5 -2.79999995231628 0
v -4.19999980926514 -2.79999995231628 0
v -4.90000009536743 -2.79999995231628 0
v -5.59999990463257 -2.79999995231628 0
v -6.29999971389771 -2.79999995231628 0
v -7 -2.79999995231628 0
v -7.69999980926514 -2.79999995231628 0
v -8.39999961853027 -2.79999995231628 0
v -9.09999942779541 -2.79999995231628 0
v -9.80000019073486 -2.79999995231628 0
v -10.5 -2.79999995231628 0
v -11.1999998092651 -2.79999995231628 0
v -11.8999996185303 -2.79999995231628 0
v -12.5999994277954 -2.79999995231628 0
v -13.2999992370605 -2.79999995231628 0
v -14 -2.79999995231628 0
v 0 -3.5 0
v -0.699999988079071 -3.5 0
v -1.39999997615814 -3.5 0
v -2.09999990463257 -3.5 0
v -2.79999995231628 -3.5 0
v -3.5 -3.5 0
v -4.19999980926514 -3.5 0
v -4.90000009536743 -3.5 0
v -5.59999990463257 -3.5 0
v -6.29999971389771 -3.5 0
v -7 -3.5 0
v -7.69999980926514 -3.5 0
v -8.39999961853027 -3.5 0
v -9.09999942779541 -3.5 0
v -9.80000019073486 -3.5 0
v -10.5 -3.5 0
v -11.1999998092651 -3.5 0
v -11.8999996185303 -3.5 0
v -12.5999994277954 -3.5 0
v -13.2999992370605 -3.5 0
v -14 -3.5 0
v 0 -4.19999980926514 0
v -0.699999988079071 -4.19999980926514 0
v -1.39999997615814 -4.19999980926514 0
v -2.09999990463257 -4.19999980926514 0
v -2.79999995231628 -4.19999980926514 0
v -3.5 -4.19999980926514 0
v -4.19999980926514 -4.19999980926514 0
v -4.90000009536743 -4.19999980926514 0
v -5.59999990463257 -4.19999980926514 0
v -6.29999971389771 -4.19999980926514 0
v -7 -4.19999980926514 0
v -7.69999980926514 -4.19999980926514 0
v -8.39999961853027 -4.19999980926514 0
v -9.09999942779541 -4.19999980926514 0
v -9.80000019073486 -4.19999980926514 0
v -10.5 -4.19999980926514 0
v -11.1999998092651 -4.19999980926514 0
v -11.8999996185303 -4.19999980926514 0
v -12.5999994277954 -4.19999980926514 0
v -13.2999992370605 -4.19999980926514 0
v -14 -4.19999980926514 0
v 0 -4.90000009536743 0
v -0.699999988079071 -4.90000009536743 0
v -1.39999997615814 -4.90000009536743 0
v -2.09999990463257 -4.90000009536743 0
v -2.79999995231628 -4.90000009536743 0
v -3.5 -4.90000009536743 0
v -4.19999980926514 -4.90000009536743 0
v -4.90000009536743 -4.90000009536743 0
v -5.59999990463257 -4.90000009536743 0
v -6.29999971389771 -4.90000009536743 0
v -7 -4.90000009536743 0
v -7.69999980926514 -4.90000009536743 0
v -8.39999961853027 -4.90000009536743 0
v -9.09999942779541 -4.90000009536743 0
v -9.80000019073486 -4.90000009536743 0
v -10.5 -4.90000009536743 0
v -11.1999998092651 -4.90000009536743 0
v -11.8999996185303 -4.90000009536743 0
v -12.5999994277954 -4.90000009536743 0
v -13.2999992370605 -4.90000009536743 0
v -14 -4.90000009536743 0
v 0 -5.59999990463257 0
v -0.699999988079071 -5.59999990463257 0
v -1.39999997615814 -5.59999990463257 0
v -2.09999990463257 -5.59999990463257 0
v -2.79999995231628 -5.59999990463257 0
v -3.5 -5.59999990463257 0
v -4.19999980926514 -5.59999990463257 0
v -4.90000009536743 -5.59999990463257 0
v -5.59999990463257 -5.59999990463257 0
v -6.29999971389771 -5.59999990463257 0
v -7 -5.59999990463257 0
v -7.69999980926514 -5.59999990463257 0
v -8.39999961853027 -5.59999990463257 0
v -9.09999942779541 -5.59999990463257 0
v -9.80000019073486 -5.59999990463257 0
v -10.5 -5.59999990463257 0
v -11.1999998092651 -5.59999990463257 0
v -11.8999996185303 -5.59999990463257 0
v -12.5999994277954 -5.59999990463257 0
v -13.2999992370605 -5.59999990463257 0
v -14 -5.59999990463257 0
v 0 -6.29999971389771 0
v -0.699999988079071 -6.29999971389771 0
v -1.39999997615814 -6.29999971389771 0
v -2.09999990463257 -6.29999971389771 0
v -2.79999995231628 -6.29999971389771 0
v -3.5 -6.29999971389771 0
v -4.19999980926514 -6.29999971389771 0
v -4.90000009536743 -6.29999971389771 0
v -5.59999990463257 -6.29999971389771 0
v -6.29999971389771 -6.29999971389771 0
v -7 -6.29999971389771 0
v -7.69999980926514 -6.29999971389771 0
v -8.39999961853027 -6.29999971389771 0
v -9.09999942779541 -6.29999971389771 0
v -9.80000019073486 -6.29999971389771 0
v -10.5 -6.29999971389771 0
v -11.1999998092651 -6.29999971389771 0
v -11.8999996185303 -6.29999971389771 0
v -12.5999994277954 -6.29999971389771 0
v -13.2999992370605 -6.29999971389771 0
v -14 -6.29999971389771 0
v 0 -7 0
v -0.699999988079071 -7 0
v -1.39999997615814 -7 0
v -2.09999990463257 -7 0
v -2.79999995231628 -7 0
v -3.5 -7 0
v -4.19999980926514 -7 0
v -4.90000009536743 -7 0
v -5.59999990463257 -7 0
v -6.29999971389771 -7 0
v -7 -7 0
v -7.69999980926514 -7 0
v -8.39999961853027 -7 0
v -9.09999942779541 -7 0
v -9.80000019073486 -7 0
v -10.5 -7 0
v -11.1999998092651 -7 0
v -11.8999996185303 -7 0
v -12.5999994277954 -7 0
v -13.2999992370605 -7 0
v -14 -7 0

# Texture Coorindates (Count = 40)
vt 0.0001220703 0.5071643
vt 0.3269807 0.5071643
vt 0.3269807 0.9998779
vt 0.0001220703 0.9998779
vt 0.3365707 0.5071643
vt 0.6634293 0.5071643
vt 0.6634293 0.9998779
vt 0.3365707 0.9998779
vt 0.0001220703 0.0001220703
vt 0.3269807 0.0001220703
vt 0.3269807 0.4928357
vt 0.0001220703 0.4928357
vt 0.3365707 0.0001220703
vt 0.6634293 0.0001220703
vt 0.6634293 0.4928357
vt 0.3365707 0.4928357
vt 0.6730193 0.0001220703
vt 0.9998779 0.0001220703
vt 0.9998779 0.4928357
vt 0.6730193 0.4928357
vt 0.6683356 0.5397366
vt 0.7492979 0.5397366
vt 0.7492979 0.614439
vt 0.6683356 0.614439
vt 0.6683356 0.6168244
vt 0.7492979 0.6168244
vt 0.7492979 0.6915268
vt 0.6683356 0.6915268
vt 0.6683356 0.6939122
vt 0.7492979 0.6939122
vt 0.7492979 0.7686145
vt 0.6683356 0.7686145
vt 0.5848088 0.3084733
vt 0.6657712 0.3084733
vt 0.6657712 0.3831756
vt 0.5848088 0.3831756
vt 0.6683356 0.0001220703
vt 0.7492979 0.0001220703
vt 0.7492979 0.07482439
vt 0.6683356 0.07482439

# Normal
vn 0 0 -1

# Groups (Count = 2)
g mesh_[00]_[00]
f  1/1/1  2/2/1  3/3/1  4/4/1 
f  2/1/1  5/2/1  6/3/1  3/4/1 
f  5/1/1  7/2/1  8/3/1  6/4/1 
f  7/1/1  9/2/1  10/3/1  8/4/1 
f  9/1/1  11/2/1  12/3/1  10/4/1 
f  11/1/1  13/2/1  14/3/1  12/4/1 
f  13/1/1  15/2/1  16/3/1  14/4/1 
f  15/1/1  17/2/1  18/3/1  16/4/1 
f  17/1/1  19/2/1  20/3/1  18/4/1 
f  19/1/1  21/2/1  22/3/1  20/4/1 
f  21/1/1  23/2/1  24/3/1  22/4/1 
f  23/1/1  25/2/1  26/3/1  24/4/1 
f  25/1/1  27/2/1  28/3/1  26/4/1 
f  27/1/1  29/2/1  30/3/1  28/4/1 
f  29/1/1  31/2/1  32/3/1  30/4/1 
f  31/1/1  33/2/1  34/3/1  32/4/1 
f  33/1/1  35/2/1  36/3/1  34/4/1 
f  35/1/1  37/2/1  38/3/1  36/4/1 
f  37/1/1  39/2/1  40/3/1  38/4/1 
f  39/1/1  41/2/1  42/3/1  40/4/1 
f  43/1/1  44/2/1  2/3/1  1/4/1 
f  44/1/1  45/2/1  5/3/1  2/4/1 
f  45/1/1  46/2/1  7/3/1  5/4/1 
f  46/1/1  47/2/1  9/3/1  7/4/1 
f  47/1/1  48/2/1  11/3/1  9/4/1 
f  48/1/1  49/2/1  13/3/1  11/4/1 
f  49/1/1  50/2/1  15/3/1  13/4/1 
f  50/1/1  51/2/1  17/3/1  15/4/1 
f  51/1/1  52/2/1  19/3/1  17/4/1 
f  52/1/1  53/2/1  21/3/1  19/4/1 
f  53/1/1  54/2/1  23/3/1  21/4/1 
f  54/1/1  55/2/1  25/3/1  23/4/1 
f  55/1/1  56/2/1  27/3/1  25/4/1 
f  56/1/1  57/2/1  29/3/1  27/4/1 
f  57/1/1  58/2/1  31/3/1  29/4/1 
f  58/1/1  59/2/1  33/3/1  31/4/1 
f  59/1/1  60/2/1  35/3/1  33/4/1 
f  60/1/1  61/2/1  37/3/1  35/4/1 
f  61/1/1  62/2/1  39/3/1  37/4/1 
f  62/1/1  63/2/1  41/3/1  39/4/1 
f  64/1/1  65/2/1  44/3/1  43/4/1 
f  65/1/1  66/2/1  45/3/1  44/4/1 
f  66/1/1  67/2/1  46/3/1  45/4/1 
f  67/1/1  68/2/1  47/3/1  46/4/1 
f  68/1/1  69/2/1  48/3/1  47/4/1 
f  69/1/1  70/2/1  49/3/1  48/4/1 
f  70/1/1  71/2/1  50/3/1  49/4/1 
f  71/1/1  72/2/1  51/3/1  50/4/1 
f  72/1/1  73/2/1  52/3/1  51/4/1 
f  73/1/1  74/2/1  53/3/1  52/4/1 
f  74/1/1  75/2/1  54/3/1  53/4/1 
f  75/1/1  76/2/1  55/3/1  54/4/1 
f  76/1/1  77/2/1  56/3/1  55/4/1 
f  77/1/1  78/2/1  57/3/1  56/4/1 
f  78/1/1  79/2/1  58/3/1  57/4/1 
f  79/5/1  80/6/1  59/7/1  58/8/1 
f  80/1/1  81/2/1  60/3/1  59/4/1 
f  81/1/1  82/2/1  61/3/1  60/4/1 
f  82/1/1  83/2/1  62/3/1  61/4/1 
f  83/1/1  84/2/1  63/3/1  62/4/1 
f  85/1/1  86/2/1  65/3/1  64/4/1 
f  86/1/1  87/2/1  66/3/1  65/4/1 
f  87/1/1  88/2/1  67/3/1  66/4/1 
f  88/1/1  89/2/1  68/3/1  67/4/1 
f  89/1/1  90/2/1  69/3/1  68/4/1 
f  90/1/1  91/2/1  70/3/1  69/4/1 
f  91/5/1  92/6/1  71/7/1  70/8/1 
f  92/1/1  93/2/1  72/3/1  71/4/1 
f  93/1/1  94/2/1  73/3/1  72/4/1 
f  94/1/1  95/2/1  74/3/1  73/4/1 
f  95/1/1  96/2/1  75/3/1  74/4/1 
f  96/1/1  97/2/1  76/3/1  75/4/1 
f  97/1/1  98/2/1  77/3/1  76/4/1 
f  98/1/1  99/2/1  78/3/1  77/4/1 
f  99/9/1  100/10/1  79/11/1  78/12/1 
f  100/13/1  101/14/1  80/15/1  79/16/1 
f  101/17/1  102/18/1  81/19/1  80/20/1 
f  102/1/1  103/2/1  82/3/1  81/4/1 
f  103/1/1  104/2/1  83/3/1  82/4/1 
f  104/1/1  105/2/1  84/3/1  83/4/1 
f  106/1/1  107/2/1  86/3/1  85/4/1 
f  107/1/1  108/2/1  87/3/1  86/4/1 
f  108/1/1  109/2/1  88/3/1  87/4/1 
f  109/1/1  110/2/1  89/3/1  88/4/1 
f  110/1/1  111/2/1  90/3/1  89/4/1 
f  111/9/1  112/10/1  91/11/1  90/12/1 
f  112/13/1  113/14/1  92/15/1  91/16/1 
f  113/17/1  114/18/1  93/19/1  92/20/1 
f  114/1/1  115/2/1  94/3/1  93/4/1 
f  115/1/1  116/2/1  95/3/1  94/4/1 
f  116/1/1  117/2/1  96/3/1  95/4/1 
f  117/1/1  118/2/1  97/3/1  96/4/1 
f  118/1/1  119/2/1  98/3/1  97/4/1 
f  119/1/1  120/2/1  99/3/1  98/4/1 
f  120/1/1  121/2/1  100/3/1  99/4/1 
f  121/1/1  122/2/1  101/3/1  100/4/1 
f  122/1/1  123/2/1  102/3/1  101/4/1 
f  123/1/1  124/2/1  103/3/1  102/4/1 
f  124/1/1  125/2/1  104/3/1  103/4/1 
f  125/1/1  126/2/1  105/3/1  104/4/1 
f  127/1/1  128/2/1  107/3/1  106/4/1 
f  128/1/1  129/2/1  108/3/1  107/4/1 
f  129/1/1  130/2/1  109/3/1  108/4/1 
f  130/1/1  131/2/1  110/3/1  109/4/1 
f  131/1/1  132/2/1  111/3/1  110/4/1 
f  132/1/1  133/2/1  112/3/1  111/4/1 
f  133/1/1  134/2/1  113/3/1  112/4/1 
f  134/1/1  135/2/1  114/3/1  113/4/1 
f  135/1/1  136/2/1  115/3/1  114/4/1 
f  136/1/1  137/2/1  116/3/1  115/4/1 
f  137/1/1  138/2/1  117/3/1  116/4/1 
f  138/1/1  139/2/1  118/3/1  117/4/1 
f  139/1/1  140/2/1  119/3/1  118/4/1 
f  140/1/1  141/2/1  120/3/1  119/4/1 
f  141/1/1  142/2/1  121/3/1  120/4/1 
f  142/1/1  143/2/1  122/3/1  121/4/1 
f  143/1/1  144/2/1  123/3/1  122/4/1 
f  144/1/1  145/2/1  124/3/1  123/4/1 
f  145/1/1  146/2/1  125/3/1  124/4/1 
f  146/1/1  147/2/1  126/3/1  125/4/1 
f  148/1/1  149/2/1  128/3/1  127/4/1 
f  149/1/1  150/2/1  129/3/1  128/4/1 
f  150/1/1  151/2/1  130/3/1  129/4/1 
f  151/1/1  152/2/1  131/3/1  130/4/1 
f  152/1/1  153/2/1  132/3/1  131/4/1 
f  153/1/1  154/2/1  133/3/1  132/4/1 
f  154/1/1  155/2/1  134/3/1  133/4/1 
f  155/1/1  156/2/1  135/3/1  134/4/1 
f  156/1/1  157/2/1  136/3/1  135/4/1 
f  157/1/1  158/2/1  137/3/1  136/4/1 
f  158/1/1  159/2/1  138/3/1  137/4/1 
f  159/1/1  160/2/1  139/3/1  138/4/1 
f  160/1/1  161/2/1  140/3/1  139/4/1 
f  161/1/1  162/2/1  141/3/1  140/4/1 
f  162/1/1  163/2/1  142/3/1  141/4/1 
f  163/1/1  164/2/1  143/3/1  142/4/1 
f  164/1/1  165/2/1  144/3/1  143/4/1 
f  165/1/1  166/2/1  145/3/1  144/4/1 
f  166/1/1  167/2/1  146/3/1  145/4/1 
f  167/1/1  168/2/1  147/3/1  146/4/1 
f  169/1/1  170/2/1  149/3/1  148/4/1 
f  170/1/1  171/2/1  150/3/1  149/4/1 
f  171/1/1  172/2/1  151/3/1  150/4/1 
f  172/1/1  173/2/1  152/3/1  151/4/1 
f  173/1/1  174/2/1  153/3/1  152/4/1 
f  174/1/1  175/2/1  154/3/1  153/4/1 
f  175/1/1  176/2/1  155/3/1  154/4/1 
f  176/1/1  177/2/1  156/3/1  155/4/1 
f  177/1/1  178/2/1  157/3/1  156/4/1 
f  178/1/1  179/2/1  158/3/1  157/4/1 
f  179/1/1  180/2/1  159/3/1  158/4/1 
f  180/1/1  181/2/1  160/3/1  159/4/1 
f  181/1/1  182/2/1  161/3/1  160/4/1 
f  182/1/1  183/2/1  162/3/1  161/4/1 
f  183/1/1  184/2/1  163/3/1  162/4/1 
f  184/1/1  185/2/1  164/3/1  163/4/1 
f  185/1/1  186/2/1  165/3/1  164/4/1 
f  186/1/1  187/2/1  166/3/1  165/4/1 
f  187/1/1  188/2/1  167/3/1  166/4/1 
f  188/1/1  189/2/1  168/3/1  167/4/1 
f  190/1/1  191/2/1  170/3/1  169/4/1 
f  191/1/1  192/2/1  171/3/1  170/4/1 
f  192/1/1  193/2/1  172/3/1  171/4/1 
f  193/1/1  194/2/1  173/3/1  172/4/1 
f  194/1/1  195/2/1  174/3/1  173/4/1 
f  195/1/1  196/2/1  175/3/1  174/4/1 
f  196/1/1  197/2/1  176/3/1  175/4/1 
f  197/1/1  198/2/1  177/3/1  176/4/1 
f  198/1/1  199/2/1  178/3/1  177/4/1 
f  199/1/1  200/2/1  179/3/1  178/4/1 
f  200/1/1  201/2/1  180/3/1  179/4/1 
f  201/1/1  202/2/1  181/3/1  180/4/1 
f  202/1/1  203/2/1  182/3/1  181/4/1 
f  203/1/1  204/2/1  183/3/1  182/4/1 
f  204/1/1  205/2/1  184/3/1  183/4/1 
f  205/1/1  206/2/1  185/3/1  184/4/1 
f  206/1/1  207/2/1  186/3/1  185/4/1 
f  207/1/1  208/2/1  187/3/1  186/4/1 
f  208/1/1  209/2/1  188/3/1  187/4/1 
f  209/1/1  210/2/1  189/3/1  188/4/1 
f  211/1/1  212/2/1  191/3/1  190/4/1 
f  212/1/1  213/2/1  192/3/1  191/4/1 
f  213/1/1  214/2/1  193/3/1  192/4/1 
f  214/1/1  215/2/1  194/3/1  193/4/1 
f  215/1/1  216/2/1  195/3/1  194/4/1 
f  216/1/1  217/2/1  196/3/1  195/4/1 
f  217/1/1  218/2/1  197/3/1  196/4/1 
f  218/1/1  219/2/1  198/3/1  197/4/1 
f  219/1/1  220/2/1  199/3/1  198/4/1 
f  220/1/1  221/2/1  200/3/1  199/4/1 
f  221/1/1  222/2/1  201/3/1  200/4/1 
f  222/1/1  223/2/1  202/3/1  201/4/1 
f  223/1/1  224/2/1  203/3/1  202/4/1 
f  224/1/1  225/2/1  204/3/1  203/4/1 
f  225/1/1  226/2/1  205/3/1  204/4/1 
f  226/1/1  227/2/1  206/3/1  205/4/1 
f  227/1/1  228/2/1  207/3/1  206/4/1 
f  228/1/1  229/2/1  208/3/1  207/4/1 
f  229/1/1  230/2/1  209/3/1  208/4/1 
f  230/1/1  231/2/1  210/3/1  209/4/1 
g mesh_[01]_[01]
f  137/21/1  138/22/1  117/23/1  116/24/1 
f  138/25/1  139/26/1  118/27/1  117/28/1 
f  139/25/1  140/26/1  119/27/1  118/28/1 
f  140/29/1  141/30/1  120/31/1  119/32/1 
f  190/33/1  191/34/1  170/35/1  169/36/1 
f  191/33/1  192/34/1  171/35/1  170/36/1 
f  192/33/1  193/34/1  172/35/1  171/36/1 
f  193/33/1  194/34/1  173/35/1  172/36/1 
f  194/33/1  195/34/1  174/35/1  173/36/1 
f  195/33/1  196/34/1  175/35/1  174/36/1 
f  196/33/1  197/34/1  176/35/1  175/36/1 
f  197/33/1  198/34/1  177/35/1  176/36/1 
f  198/33/1  199/34/1  178/35/1  177/36/1 
f  199/33/1  200/34/1  179/35/1  178/36/1 
f  200/33/1  201/34/1  180/35/1  179/36/1 
f  201/33/1  202/34/1  181/35/1  180/36/1 
f  202/33/1  203/34/1  182/35/1  181/36/1 
f  203/33/1  204/34/1  183/35/1  182/36/1 
f  204/33/1  205/34/1  184/35/1  183/36/1 
f  205/33/1  206/34/1  185/35/1  184/36/1 
f  206/33/1  207/34/1  186/35/1  185/36/1 
f  207/33/1  208/34/1  187/35/1  186/36/1 
f  208/33/1  209/34/1  188/35/1  187/36/1 
f  209/33/1  210/34/1  189/35/1  188/36/1 
f  211/37/1  212/38/1  191/39/1  190/40/1 
f  212/37/1  213/38/1  192/39/1  191/40/1 
f  213/37/1  214/38/1  193/39/1  192/40/1 
f  214/37/1  215/38/1  194/39/1  193/40/1 
f  215/37/1  216/38/1  195/39/1  194/40/1 
f  216/37/1  217/38/1  196/39/1  195/40/1 
f  217/37/1  218/38/1  197/39/1  196/40/1 
f  218/37/1  219/38/1  198/39/1  197/40/1 
f  219/37/1  220/38/1  199/39/1  198/40/1 
f  220/37/1  221/38/1  200/39/1  199/40/1 
f  221/37/1  222/38/1  201/39/1  200/40/1 
f  222/37/1  223/38/1  202/39/1  201/40/1 
f  223/37/1  224/38/1  203/39/1  202/40/1 
f  224/37/1  225/38/1  204/39/1  203/40/1 
f  225/37/1  226/38/1  205/39/1  204/40/1 
f  226/37/1  227/38/1  206/39/1  205/40/1 
f  227/37/1  228/38/1  207/39/1  206/40/1 
f  228/37/1  229/38/1  208/39/1  207/40/1 
f  229/37/1  230/38/1  209/39/1  208/40/1 
f  230/37/1  231/38/1  210/39/1  209/40/1 
